# Blender v2.83.5 OBJ File: ''
# www.blender.org
mtllib bochka.mtl
o Circle
v 0.843827 0.000000 -0.487184
v 0.843827 -0.000000 0.487184
v 1.063743 1.398060 0.614153
v 1.063743 1.398060 -0.614153
v 0.000000 -0.000000 0.974367
v -0.843827 -0.000000 0.487184
v -1.063743 1.398060 0.614153
v 0.000000 1.398060 1.228305
v -0.843827 0.000000 -0.487184
v 0.000000 0.000000 -0.974367
v 0.000000 1.398060 -1.228305
v -1.063743 1.398060 -0.614153
v 0.000000 1.757894 -1.228305
v -1.063743 1.757894 -0.614153
v 1.063743 1.757894 -0.614153
v 0.000000 1.757894 1.228305
v 1.063743 1.757894 0.614153
v -1.063743 1.757894 0.614153
v 0.733009 3.104815 0.529813
v 0.733009 3.104815 -0.492730
v -1.038085 3.104815 0.529813
v -0.152538 3.104815 1.041083
v -0.152538 3.104815 -1.004000
v -1.038085 3.104815 -0.492730
v -0.152538 3.104815 -0.891584
v -0.940730 3.104815 -0.436522
v -1.038085 2.904365 -0.492730
v -0.152538 2.904365 -1.004000
v 0.733009 2.904365 -0.492730
v 0.733009 2.904365 0.529813
v -0.152538 2.904365 1.041083
v -1.038085 2.904365 0.529813
v -0.152538 2.904365 -0.891584
v 0.635654 2.904365 -0.436522
v -0.152538 3.104815 0.928668
v 0.635654 3.104815 0.473605
v -0.940730 2.904365 0.473605
v -0.940730 2.904365 -0.436522
v 0.635654 2.904365 0.473605
v -0.940730 3.104815 0.473605
v 0.635654 3.104815 -0.436522
v -0.152538 2.904365 0.928668
vt 0.312605 0.600142
vt 0.245155 0.538644
vt 0.239563 0.549417
vt 0.223262 0.628561
vt 0.157131 0.574353
vt 0.226639 0.549933
vt 0.220209 0.542095
vt 0.166032 0.494410
vt 0.240007 0.460027
vt 0.224982 0.533885
vt 0.235191 0.532609
vt 0.312605 0.506359
vt 0.646231 0.443171
vt 0.651557 0.449639
vt 0.698702 0.444427
vt 0.706795 0.435600
vt 0.733524 0.473161
vt 0.765905 0.471404
vt 0.732732 0.535311
vt 0.711168 0.513320
vt 0.652526 0.510399
vt 0.656057 0.538373
vt 0.617912 0.491873
vt 0.624202 0.485062
vt 0.489906 0.468239
vt 0.445458 0.468661
vt 0.427389 0.468152
vt 0.467551 0.508399
vt 0.408909 0.505477
vt 0.382770 0.451526
vt 0.398062 0.461500
vt 0.380585 0.480140
vt 0.407939 0.444718
vt 0.414282 0.463428
vt 0.432699 0.463519
vt 0.455085 0.439506
vt 0.414467 0.461376
vt 0.429989 0.462079
vt 0.415040 0.458709
vt 0.406779 0.458830
vt 0.404411 0.462403
vt 0.418077 0.468869
vt 0.429639 0.466895
vt 0.424714 0.460577
vt 0.434085 0.467118
vt 0.426901 0.461764
vt 0.424013 0.469082
vt 0.390300 0.455929
vt 0.414735 0.460325
vt 0.404140 0.459756
vt 0.420902 0.468039
vt 0.401157 0.460121
vt 0.440126 0.468020
vt 0.398378 0.459374
vn 0.6377 -0.6766 -0.3682
vn 0.9879 -0.1554 0.0000
vn 0.6377 -0.6766 0.3682
vn 0.0000 -0.6766 0.7363
vn -0.4939 -0.1554 0.8555
vn -0.6377 -0.6766 0.3682
vn -0.6377 -0.6766 -0.3682
vn -0.4939 -0.1554 -0.8555
vn 0.0000 -0.6766 -0.7363
vn 0.4939 -0.1554 -0.8555
vn 0.4939 -0.1554 0.8555
vn -0.9879 -0.1554 0.0000
vn -0.5000 0.0000 -0.8660
vn 0.5000 0.0000 -0.8660
vn 0.5000 0.0000 0.8660
vn -1.0000 0.0000 0.0000
vn 1.0000 0.0000 0.0000
vn -0.5000 0.0000 0.8660
vn 0.9712 0.2385 0.0000
vn -0.4990 0.0636 0.8643
vn -0.4981 0.0873 -0.8627
vn 0.4902 0.1969 -0.8491
vn 0.4923 0.1743 0.8528
vn -0.9998 0.0190 0.0000
vn 0.0000 1.0000 0.0000
vn 0.0000 -1.0000 0.0000
usemtl Material.001
s 1
f 1/1/1 4/2/2 3/3/2 2/4/3
f 5/5/4 8/6/5 7/7/5 6/8/6
f 9/9/7 12/10/8 11/11/8 10/12/9
f 10/12/9 11/11/10 4/2/10 1/1/1
f 2/4/3 3/3/11 8/6/11 5/5/4
f 6/8/6 7/7/12 12/10/12 9/9/7
f 12/13/13 14/14/13 13/15/13 11/16/13
f 11/16/14 13/15/14 15/17/14 4/18/14
f 3/19/15 17/20/15 16/21/15 8/22/15
f 7/23/16 18/24/16 14/14/16 12/13/16
f 4/18/17 15/17/17 17/20/17 3/19/17
f 8/22/18 16/21/18 18/24/18 7/23/18
f 15/25/19 20/26/19 19/27/19 17/28/19
f 16/29/20 22/30/20 21/31/20 18/32/20
f 14/33/21 24/34/21 23/35/21 13/36/21
f 13/36/22 23/35/22 20/26/22 15/25/22
f 17/28/23 19/27/23 22/30/23 16/29/23
f 18/32/24 21/31/24 24/34/24 14/33/24
f 24/34/25 26/37/25 25/38/25 23/35/25
f 27/39/25 32/40/25 31/41/25 30/42/25 29/43/25 28/44/25
f 29/43/26 34/45/26 33/46/26 28/44/26
f 19/27/25 36/47/25 35/48/25 22/30/25
f 27/39/26 38/49/26 37/50/26 32/40/26
f 30/42/26 39/51/26 34/45/26 29/43/26
f 22/30/25 35/48/25 40/52/25 21/31/25
f 25/38/18 33/46/18 34/45/18 41/53/18
f 36/47/13 39/51/13 42/54/13 35/48/13
f 40/52/17 37/50/17 38/49/17 26/37/17
f 41/53/16 34/45/16 39/51/16 36/47/16
f 35/48/14 42/54/14 37/50/14 40/52/14
f 26/37/15 38/49/15 33/46/15 25/38/15
f 32/40/26 37/50/26 42/54/26 31/41/26
f 20/26/25 41/53/25 36/47/25 19/27/25
f 21/31/25 40/52/25 26/37/25 24/34/25
f 31/41/26 42/54/26 39/51/26 30/42/26
f 23/35/25 25/38/25 41/53/25 20/26/25
f 28/44/26 33/46/26 38/49/26 27/39/26
f 1/1/1 2/4/3 5/5/4 6/8/6 9/9/7 10/12/9
o Circle.001
v 0.282037 2.740345 -0.355885
v 0.420125 2.740345 -0.276160
v 0.420125 2.740345 -0.116709
v 0.282037 2.740345 -0.036984
v 0.143948 2.740345 -0.116709
v 0.143948 2.740345 -0.276160
v 0.282037 3.069523 -0.355885
v 0.143948 3.069523 -0.276160
v 0.143948 3.069523 -0.116709
v 0.282037 3.069523 -0.036984
v 0.420125 3.069523 -0.116709
v 0.420125 3.069523 -0.276160
vt 0.308059 0.690547
vt 0.430456 0.619882
vt 0.430456 0.478550
vt 0.308059 0.407884
vt 0.185662 0.478550
vt 0.185662 0.619882
vt 0.148108 0.743426
vt 0.112045 0.722605
vt 0.112045 0.680963
vt 0.148108 0.660142
vt 0.184171 0.680963
vt 0.184171 0.722605
vt 0.317902 0.403849
vt 0.435269 0.471611
vt 0.435269 0.471611
vt 0.317902 0.403849
vt 0.200535 0.607134
vt 0.200535 0.471611
vt 0.200535 0.471611
vt 0.200535 0.607134
vt 0.435269 0.607134
vt 0.435269 0.607134
vt 0.317902 0.674896
vt 0.317902 0.674896
vn 0.0000 -1.0000 -0.0000
vn 0.0000 1.0000 0.0000
vn 0.5000 -0.0000 0.8660
vn -1.0000 -0.0000 0.0000
vn 1.0000 0.0000 0.0000
vn -0.5000 -0.0000 0.8660
vn -0.5000 0.0000 -0.8660
vn 0.5000 0.0000 -0.8660
usemtl Material.001
s 1
f 43/55/27 44/56/27 45/57/27 46/58/27 47/59/27 48/60/27
f 49/61/28 50/62/28 51/63/28 52/64/28 53/65/28 54/66/28
f 46/67/29 45/68/29 53/69/29 52/70/29
f 48/71/30 47/72/30 51/73/30 50/74/30
f 45/68/31 44/75/31 54/76/31 53/69/31
f 47/72/32 46/67/32 52/70/32 51/73/32
f 43/77/33 48/71/33 50/74/33 49/78/33
f 44/75/34 43/77/34 49/78/34 54/76/34
